<svg width="32" height="32" viewBox="0 0 32 32" fill="none" xmlns="http://www.w3.org/2000/svg">
<rect width="32" height="32" rx="4" fill="url(#paint0_linear_589_1574)"/>
<path d="M11 15V19C11 19.5304 11.2107 20.0391 11.5858 20.4142C11.9609 20.7893 12.4696 21 13 21H17M9 7H13C14.1046 7 15 7.89543 15 9V13C15 14.1046 14.1046 15 13 15H9C7.89543 15 7 14.1046 7 13V9C7 7.89543 7.89543 7 9 7ZM19 17H23C24.1046 17 25 17.8954 25 19V23C25 24.1046 24.1046 25 23 25H19C17.8954 25 17 24.1046 17 23V19C17 17.8954 17.8954 17 19 17Z" stroke="white" stroke-width="1.2" stroke-linecap="round" stroke-linejoin="round"/>
<defs>
<linearGradient id="paint0_linear_589_1574" x1="-35" y1="21.9999" x2="60.8211" y2="18.3299" gradientUnits="userSpaceOnUse">
<stop stop-color="#0381E5"/>
<stop offset="1" stop-color="#FF2B36"/>
</linearGradient>
</defs>
</svg>
